<mxfile host="65bd71144e">
    <diagram id="BLXa7WugtBwhYNmTDhaj" name="binary">
        <mxGraphModel dx="1658" dy="916" grid="1" gridSize="10" guides="1" tooltips="1" connect="1" arrows="1" fold="1" page="1" pageScale="1" pageWidth="827" pageHeight="1169" math="0" shadow="0">
            <root>
                <mxCell id="0"/>
                <mxCell id="1" parent="0"/>
                <mxCell id="2" style="edgeStyle=orthogonalEdgeStyle;rounded=0;html=1;exitX=0.5;exitY=1;exitDx=0;exitDy=0;entryX=0.25;entryY=0;entryDx=0;entryDy=0;strokeWidth=1;" parent="1" source="3" target="5" edge="1">
                    <mxGeometry relative="1" as="geometry"/>
                </mxCell>
                <mxCell id="3" value="" style="rounded=0;whiteSpace=wrap;html=1;fillColor=none;" parent="1" vertex="1">
                    <mxGeometry x="80" y="240" width="60" height="40" as="geometry"/>
                </mxCell>
                <mxCell id="4" style="edgeStyle=orthogonalEdgeStyle;rounded=0;html=1;exitX=0.5;exitY=1;exitDx=0;exitDy=0;entryX=0.5;entryY=0;entryDx=0;entryDy=0;strokeWidth=1;" parent="1" source="5" target="28" edge="1">
                    <mxGeometry relative="1" as="geometry"/>
                </mxCell>
                <mxCell id="5" value="+" style="rounded=0;whiteSpace=wrap;html=1;fillColor=none;" parent="1" vertex="1">
                    <mxGeometry x="80" y="320" width="120" height="40" as="geometry"/>
                </mxCell>
                <mxCell id="6" style="edgeStyle=orthogonalEdgeStyle;rounded=0;html=1;exitX=0.5;exitY=1;exitDx=0;exitDy=0;entryX=0.75;entryY=0;entryDx=0;entryDy=0;strokeWidth=1;" parent="1" source="7" target="5" edge="1">
                    <mxGeometry relative="1" as="geometry"/>
                </mxCell>
                <mxCell id="7" value="" style="rounded=0;whiteSpace=wrap;html=1;fillColor=none;" parent="1" vertex="1">
                    <mxGeometry x="140" y="240" width="60" height="40" as="geometry"/>
                </mxCell>
                <mxCell id="8" style="edgeStyle=none;rounded=0;html=1;exitX=0.5;exitY=1;exitDx=0;exitDy=0;entryX=0.25;entryY=0;entryDx=0;entryDy=0;strokeWidth=1;" parent="1" source="9" target="12" edge="1">
                    <mxGeometry relative="1" as="geometry"/>
                </mxCell>
                <mxCell id="9" value="" style="rounded=0;whiteSpace=wrap;html=1;fillColor=none;" parent="1" vertex="1">
                    <mxGeometry x="280" y="240" width="20" height="40" as="geometry"/>
                </mxCell>
                <mxCell id="10" style="edgeStyle=orthogonalEdgeStyle;rounded=0;html=1;exitX=0.75;exitY=1;exitDx=0;exitDy=0;entryX=0;entryY=0.5;entryDx=0;entryDy=0;strokeWidth=1;" parent="1" source="12" target="19" edge="1">
                    <mxGeometry relative="1" as="geometry"/>
                </mxCell>
                <mxCell id="11" style="edgeStyle=orthogonalEdgeStyle;rounded=0;html=1;exitX=0.25;exitY=1;exitDx=0;exitDy=0;entryX=0.5;entryY=0;entryDx=0;entryDy=0;strokeWidth=1;" parent="1" source="12" target="29" edge="1">
                    <mxGeometry relative="1" as="geometry"/>
                </mxCell>
                <mxCell id="12" value="+" style="rounded=0;whiteSpace=wrap;html=1;fillColor=none;" parent="1" vertex="1">
                    <mxGeometry x="280" y="320" width="40" height="40" as="geometry"/>
                </mxCell>
                <mxCell id="13" style="edgeStyle=none;rounded=0;html=1;exitX=0.5;exitY=1;exitDx=0;exitDy=0;entryX=0.75;entryY=0;entryDx=0;entryDy=0;strokeWidth=1;" parent="1" source="14" target="12" edge="1">
                    <mxGeometry relative="1" as="geometry"/>
                </mxCell>
                <mxCell id="14" value="" style="rounded=0;whiteSpace=wrap;html=1;fillColor=none;" parent="1" vertex="1">
                    <mxGeometry x="300" y="240" width="20" height="40" as="geometry"/>
                </mxCell>
                <mxCell id="15" style="edgeStyle=none;rounded=0;html=1;exitX=0.5;exitY=1;exitDx=0;exitDy=0;entryX=0.25;entryY=0;entryDx=0;entryDy=0;strokeWidth=1;" parent="1" source="16" target="19" edge="1">
                    <mxGeometry relative="1" as="geometry"/>
                </mxCell>
                <mxCell id="16" value="" style="rounded=0;whiteSpace=wrap;html=1;fillColor=none;" parent="1" vertex="1">
                    <mxGeometry x="360" y="240" width="20" height="40" as="geometry"/>
                </mxCell>
                <mxCell id="17" style="edgeStyle=orthogonalEdgeStyle;rounded=0;html=1;exitX=0.75;exitY=1;exitDx=0;exitDy=0;entryX=0;entryY=0.5;entryDx=0;entryDy=0;strokeWidth=1;" parent="1" source="19" target="25" edge="1">
                    <mxGeometry relative="1" as="geometry"/>
                </mxCell>
                <mxCell id="18" style="edgeStyle=orthogonalEdgeStyle;rounded=0;html=1;exitX=0.5;exitY=1;exitDx=0;exitDy=0;entryX=0.5;entryY=0;entryDx=0;entryDy=0;strokeWidth=1;" parent="1" source="19" target="30" edge="1">
                    <mxGeometry relative="1" as="geometry"/>
                </mxCell>
                <mxCell id="19" value="+" style="rounded=0;whiteSpace=wrap;html=1;fillColor=none;" parent="1" vertex="1">
                    <mxGeometry x="360" y="400" width="40" height="40" as="geometry"/>
                </mxCell>
                <mxCell id="20" style="edgeStyle=none;rounded=0;html=1;exitX=0.5;exitY=1;exitDx=0;exitDy=0;entryX=0.75;entryY=0;entryDx=0;entryDy=0;strokeWidth=1;" parent="1" source="21" target="19" edge="1">
                    <mxGeometry relative="1" as="geometry"/>
                </mxCell>
                <mxCell id="21" value="" style="rounded=0;whiteSpace=wrap;html=1;fillColor=none;" parent="1" vertex="1">
                    <mxGeometry x="380" y="240" width="20" height="40" as="geometry"/>
                </mxCell>
                <mxCell id="22" style="edgeStyle=none;rounded=0;html=1;exitX=0.5;exitY=1;exitDx=0;exitDy=0;entryX=0.25;entryY=0;entryDx=0;entryDy=0;strokeWidth=1;" parent="1" source="23" target="25" edge="1">
                    <mxGeometry relative="1" as="geometry"/>
                </mxCell>
                <mxCell id="23" value="" style="rounded=0;whiteSpace=wrap;html=1;fillColor=none;" parent="1" vertex="1">
                    <mxGeometry x="440" y="240" width="20" height="40" as="geometry"/>
                </mxCell>
                <mxCell id="24" style="edgeStyle=orthogonalEdgeStyle;rounded=0;html=1;exitX=0.5;exitY=1;exitDx=0;exitDy=0;entryX=0.5;entryY=0;entryDx=0;entryDy=0;strokeWidth=1;" parent="1" source="25" target="31" edge="1">
                    <mxGeometry relative="1" as="geometry"/>
                </mxCell>
                <mxCell id="25" value="+" style="rounded=0;whiteSpace=wrap;html=1;fillColor=none;" parent="1" vertex="1">
                    <mxGeometry x="440" y="480" width="40" height="40" as="geometry"/>
                </mxCell>
                <mxCell id="26" style="edgeStyle=none;rounded=0;html=1;exitX=0.5;exitY=1;exitDx=0;exitDy=0;entryX=0.75;entryY=0;entryDx=0;entryDy=0;strokeWidth=1;" parent="1" source="27" target="25" edge="1">
                    <mxGeometry relative="1" as="geometry"/>
                </mxCell>
                <mxCell id="27" value="" style="rounded=0;whiteSpace=wrap;html=1;fillColor=none;" parent="1" vertex="1">
                    <mxGeometry x="460" y="240" width="20" height="40" as="geometry"/>
                </mxCell>
                <mxCell id="28" value="" style="rounded=0;whiteSpace=wrap;html=1;fillColor=none;" parent="1" vertex="1">
                    <mxGeometry x="110" y="400" width="60" height="40" as="geometry"/>
                </mxCell>
                <mxCell id="29" value="" style="rounded=0;whiteSpace=wrap;html=1;fillColor=none;" parent="1" vertex="1">
                    <mxGeometry x="350" y="560" width="20" height="40" as="geometry"/>
                </mxCell>
                <mxCell id="30" value="" style="rounded=0;whiteSpace=wrap;html=1;fillColor=none;" parent="1" vertex="1">
                    <mxGeometry x="370" y="560" width="20" height="40" as="geometry"/>
                </mxCell>
                <mxCell id="31" value="" style="rounded=0;whiteSpace=wrap;html=1;fillColor=none;" parent="1" vertex="1">
                    <mxGeometry x="390" y="560" width="20" height="40" as="geometry"/>
                </mxCell>
                <mxCell id="32" value="" style="rounded=0;whiteSpace=wrap;html=1;dashed=1;fillColor=#d5e8d4;strokeColor=#82b366;" parent="1" vertex="1">
                    <mxGeometry x="477.5" y="640" width="80" height="200" as="geometry"/>
                </mxCell>
                <mxCell id="33" style="edgeStyle=none;html=1;exitX=1;exitY=0.25;exitDx=0;exitDy=0;entryX=0;entryY=0.5;entryDx=0;entryDy=0;" parent="1" source="34" target="44" edge="1">
                    <mxGeometry relative="1" as="geometry"/>
                </mxCell>
                <mxCell id="34" value="" style="rounded=0;whiteSpace=wrap;html=1;dashed=1;fillColor=#dae8fc;strokeColor=#6c8ebf;" parent="1" vertex="1">
                    <mxGeometry x="357.5" y="640" width="80" height="200" as="geometry"/>
                </mxCell>
                <mxCell id="35" value="a" style="rounded=0;whiteSpace=wrap;html=1;" parent="1" vertex="1">
                    <mxGeometry x="37.5" y="720" width="280" height="40" as="geometry"/>
                </mxCell>
                <mxCell id="36" value="~b" style="rounded=0;whiteSpace=wrap;html=1;" parent="1" vertex="1">
                    <mxGeometry x="37.5" y="800" width="240" height="40" as="geometry"/>
                </mxCell>
                <mxCell id="37" value="1" style="whiteSpace=wrap;html=1;aspect=fixed;" parent="1" vertex="1">
                    <mxGeometry x="37.5" y="640" width="40" height="40" as="geometry"/>
                </mxCell>
                <mxCell id="38" value="a(0)" style="rounded=0;whiteSpace=wrap;html=1;" parent="1" vertex="1">
                    <mxGeometry x="357.5" y="720" width="80" height="40" as="geometry"/>
                </mxCell>
                <mxCell id="39" style="edgeStyle=none;html=1;exitX=0.5;exitY=1;exitDx=0;exitDy=0;entryX=0.5;entryY=0;entryDx=0;entryDy=0;" parent="1" source="40" target="46" edge="1">
                    <mxGeometry relative="1" as="geometry"/>
                </mxCell>
                <mxCell id="40" value="~b(0)" style="rounded=0;whiteSpace=wrap;html=1;" parent="1" vertex="1">
                    <mxGeometry x="357.5" y="800" width="80" height="40" as="geometry"/>
                </mxCell>
                <mxCell id="41" value="1" style="whiteSpace=wrap;html=1;aspect=fixed;" parent="1" vertex="1">
                    <mxGeometry x="357.5" y="640" width="40" height="40" as="geometry"/>
                </mxCell>
                <mxCell id="42" value="a(1)" style="rounded=0;whiteSpace=wrap;html=1;" parent="1" vertex="1">
                    <mxGeometry x="477.5" y="720" width="80" height="40" as="geometry"/>
                </mxCell>
                <mxCell id="43" value="~b(1)" style="rounded=0;whiteSpace=wrap;html=1;" parent="1" vertex="1">
                    <mxGeometry x="477.5" y="800" width="80" height="40" as="geometry"/>
                </mxCell>
                <mxCell id="44" value="carry" style="whiteSpace=wrap;html=1;aspect=fixed;" parent="1" vertex="1">
                    <mxGeometry x="477.5" y="640" width="40" height="40" as="geometry"/>
                </mxCell>
                <mxCell id="45" value="diff" style="rounded=0;whiteSpace=wrap;html=1;" parent="1" vertex="1">
                    <mxGeometry x="37.5" y="880" width="280" height="40" as="geometry"/>
                </mxCell>
                <mxCell id="46" value="diff(0)" style="rounded=0;whiteSpace=wrap;html=1;" parent="1" vertex="1">
                    <mxGeometry x="357.5" y="880" width="80" height="40" as="geometry"/>
                </mxCell>
                <mxCell id="47" value="diff(0)" style="rounded=0;whiteSpace=wrap;html=1;" parent="1" vertex="1">
                    <mxGeometry x="477.5" y="880" width="80" height="40" as="geometry"/>
                </mxCell>
                <mxCell id="48" value="0s" style="whiteSpace=wrap;html=1;aspect=fixed;" parent="1" vertex="1">
                    <mxGeometry x="277.5" y="800" width="40" height="40" as="geometry"/>
                </mxCell>
                <mxCell id="49" value="3 - 4 = 0011 + 1011 + 1 = 01111" style="text;html=1;align=center;verticalAlign=middle;resizable=0;points=[];autosize=1;strokeColor=none;fillColor=none;" parent="1" vertex="1">
                    <mxGeometry x="27.5" y="990" width="180" height="20" as="geometry"/>
                </mxCell>
                <mxCell id="50" value="4 - 3 = 0100 + 1100 + 1 = 10001" style="text;html=1;align=center;verticalAlign=middle;resizable=0;points=[];autosize=1;strokeColor=none;fillColor=none;" parent="1" vertex="1">
                    <mxGeometry x="22.5" y="1020" width="190" height="20" as="geometry"/>
                </mxCell>
                <mxCell id="51" value="leading 0 for negative" style="text;html=1;align=center;verticalAlign=middle;resizable=0;points=[];autosize=1;strokeColor=none;fillColor=none;" parent="1" vertex="1">
                    <mxGeometry x="212.5" y="990" width="130" height="20" as="geometry"/>
                </mxCell>
                <mxCell id="52" value="leading 1 for positive" style="text;html=1;align=center;verticalAlign=middle;resizable=0;points=[];autosize=1;strokeColor=none;fillColor=none;" parent="1" vertex="1">
                    <mxGeometry x="212.5" y="1020" width="130" height="20" as="geometry"/>
                </mxCell>
            </root>
        </mxGraphModel>
    </diagram>
    <diagram id="L92AQdV0_3e-4x9iCdOU" name="ternary">
        <mxGraphModel dx="1658" dy="916" grid="1" gridSize="10" guides="1" tooltips="1" connect="1" arrows="1" fold="1" page="1" pageScale="1" pageWidth="827" pageHeight="1169" math="0" shadow="0">
            <root>
                <mxCell id="ffcxH7xcVm80o1i9jLkF-0"/>
                <mxCell id="ffcxH7xcVm80o1i9jLkF-1" parent="ffcxH7xcVm80o1i9jLkF-0"/>
            </root>
        </mxGraphModel>
    </diagram>
    <diagram id="TWe7ju7eeSD8mHM-DVwH" name="第 3 页">
        <mxGraphModel dx="1658" dy="916" grid="1" gridSize="10" guides="1" tooltips="1" connect="1" arrows="1" fold="1" page="1" pageScale="1" pageWidth="827" pageHeight="1169" math="0" shadow="0">
            <root>
                <mxCell id="tGjyJB5442aN72W2CnYs-0"/>
                <mxCell id="tGjyJB5442aN72W2CnYs-1" parent="tGjyJB5442aN72W2CnYs-0"/>
                <mxCell id="tGjyJB5442aN72W2CnYs-2" style="rounded=0;html=1;exitX=0.5;exitY=1;exitDx=0;exitDy=0;entryX=1;entryY=0;entryDx=0;entryDy=0;fillColor=#dae8fc;strokeColor=#6c8ebf;noEdgeStyle=1;orthogonal=1;" edge="1" parent="tGjyJB5442aN72W2CnYs-1" source="tGjyJB5442aN72W2CnYs-5" target="tGjyJB5442aN72W2CnYs-9">
                    <mxGeometry relative="1" as="geometry">
                        <Array as="points">
                            <mxPoint x="220" y="52"/>
                            <mxPoint x="125" y="128"/>
                        </Array>
                    </mxGeometry>
                </mxCell>
                <mxCell id="tGjyJB5442aN72W2CnYs-3" style="edgeStyle=none;rounded=0;html=1;exitX=0.5;exitY=1;exitDx=0;exitDy=0;entryX=0;entryY=0;entryDx=0;entryDy=0;fillColor=#dae8fc;strokeColor=#6c8ebf;noEdgeStyle=1;orthogonal=1;" edge="1" parent="tGjyJB5442aN72W2CnYs-1" source="tGjyJB5442aN72W2CnYs-5" target="tGjyJB5442aN72W2CnYs-17">
                    <mxGeometry relative="1" as="geometry">
                        <Array as="points">
                            <mxPoint x="230" y="54"/>
                            <mxPoint x="230" y="128"/>
                        </Array>
                    </mxGeometry>
                </mxCell>
                <mxCell id="tGjyJB5442aN72W2CnYs-4" style="edgeStyle=none;html=1;exitX=0.5;exitY=1;exitDx=0;exitDy=0;entryX=0.5;entryY=0;entryDx=0;entryDy=0;noEdgeStyle=1;orthogonal=1;" edge="1" parent="tGjyJB5442aN72W2CnYs-1" source="tGjyJB5442aN72W2CnYs-5" target="tGjyJB5442aN72W2CnYs-28">
                    <mxGeometry relative="1" as="geometry">
                        <Array as="points">
                            <mxPoint x="240" y="52"/>
                            <mxPoint x="335" y="128"/>
                        </Array>
                    </mxGeometry>
                </mxCell>
                <mxCell id="tGjyJB5442aN72W2CnYs-5" value="96" style="ellipse;whiteSpace=wrap;html=1;aspect=fixed;fillColor=#ffe6cc;strokeColor=#d79b00;" vertex="1" parent="tGjyJB5442aN72W2CnYs-1">
                    <mxGeometry x="210" width="40" height="40" as="geometry"/>
                </mxCell>
                <mxCell id="tGjyJB5442aN72W2CnYs-6" style="edgeStyle=none;rounded=0;html=1;exitX=0.5;exitY=1;exitDx=0;exitDy=0;entryX=0.5;entryY=0;entryDx=0;entryDy=0;fillColor=#dae8fc;strokeColor=#6c8ebf;noEdgeStyle=1;orthogonal=1;" edge="1" parent="tGjyJB5442aN72W2CnYs-1" source="tGjyJB5442aN72W2CnYs-9" target="tGjyJB5442aN72W2CnYs-18">
                    <mxGeometry relative="1" as="geometry">
                        <Array as="points">
                            <mxPoint x="115" y="192"/>
                            <mxPoint x="20" y="268"/>
                        </Array>
                    </mxGeometry>
                </mxCell>
                <mxCell id="tGjyJB5442aN72W2CnYs-7" style="edgeStyle=none;rounded=0;html=1;exitX=0.5;exitY=1;exitDx=0;exitDy=0;entryX=0.5;entryY=0;entryDx=0;entryDy=0;fillColor=#dae8fc;strokeColor=#6c8ebf;noEdgeStyle=1;orthogonal=1;" edge="1" parent="tGjyJB5442aN72W2CnYs-1" source="tGjyJB5442aN72W2CnYs-9" target="tGjyJB5442aN72W2CnYs-20">
                    <mxGeometry relative="1" as="geometry">
                        <Array as="points">
                            <mxPoint x="125" y="194"/>
                            <mxPoint x="90" y="268"/>
                        </Array>
                    </mxGeometry>
                </mxCell>
                <mxCell id="tGjyJB5442aN72W2CnYs-8" style="edgeStyle=none;html=1;exitX=0.5;exitY=1;exitDx=0;exitDy=0;entryX=0.5;entryY=0;entryDx=0;entryDy=0;noEdgeStyle=1;orthogonal=1;" edge="1" parent="tGjyJB5442aN72W2CnYs-1" source="tGjyJB5442aN72W2CnYs-9" target="tGjyJB5442aN72W2CnYs-30">
                    <mxGeometry relative="1" as="geometry">
                        <Array as="points">
                            <mxPoint x="135" y="192"/>
                            <mxPoint x="160" y="268"/>
                        </Array>
                    </mxGeometry>
                </mxCell>
                <mxCell id="tGjyJB5442aN72W2CnYs-9" value="48" style="ellipse;whiteSpace=wrap;html=1;aspect=fixed;fillColor=#ffe6cc;strokeColor=#d79b00;" vertex="1" parent="tGjyJB5442aN72W2CnYs-1">
                    <mxGeometry x="105" y="140" width="40" height="40" as="geometry"/>
                </mxCell>
                <mxCell id="tGjyJB5442aN72W2CnYs-10" style="edgeStyle=none;rounded=0;html=1;exitX=0.5;exitY=1;exitDx=0;exitDy=0;entryX=0.5;entryY=0;entryDx=0;entryDy=0;fillColor=#dae8fc;strokeColor=#6c8ebf;noEdgeStyle=1;orthogonal=1;" edge="1" parent="tGjyJB5442aN72W2CnYs-1" source="tGjyJB5442aN72W2CnYs-13" target="tGjyJB5442aN72W2CnYs-21">
                    <mxGeometry relative="1" as="geometry">
                        <Array as="points">
                            <mxPoint x="430" y="332"/>
                            <mxPoint x="230" y="408"/>
                        </Array>
                    </mxGeometry>
                </mxCell>
                <mxCell id="tGjyJB5442aN72W2CnYs-11" style="edgeStyle=none;rounded=0;html=1;exitX=0.5;exitY=1;exitDx=0;exitDy=0;entryX=0.5;entryY=0;entryDx=0;entryDy=0;fillColor=#dae8fc;strokeColor=#6c8ebf;noEdgeStyle=1;orthogonal=1;" edge="1" parent="tGjyJB5442aN72W2CnYs-1" source="tGjyJB5442aN72W2CnYs-13" target="tGjyJB5442aN72W2CnYs-23">
                    <mxGeometry relative="1" as="geometry">
                        <Array as="points">
                            <mxPoint x="440" y="334"/>
                            <mxPoint x="300" y="408"/>
                        </Array>
                    </mxGeometry>
                </mxCell>
                <mxCell id="tGjyJB5442aN72W2CnYs-12" style="edgeStyle=none;html=1;exitX=0.5;exitY=1;exitDx=0;exitDy=0;entryX=0.5;entryY=0;entryDx=0;entryDy=0;noEdgeStyle=1;orthogonal=1;" edge="1" parent="tGjyJB5442aN72W2CnYs-1" source="tGjyJB5442aN72W2CnYs-13" target="tGjyJB5442aN72W2CnYs-32">
                    <mxGeometry relative="1" as="geometry">
                        <Array as="points">
                            <mxPoint x="450" y="332"/>
                            <mxPoint x="438.90625" y="408"/>
                        </Array>
                    </mxGeometry>
                </mxCell>
                <mxCell id="tGjyJB5442aN72W2CnYs-13" value="49" style="ellipse;whiteSpace=wrap;html=1;aspect=fixed;fillColor=#ffe6cc;strokeColor=#d79b00;" vertex="1" parent="tGjyJB5442aN72W2CnYs-1">
                    <mxGeometry x="420" y="280" width="40" height="40" as="geometry"/>
                </mxCell>
                <mxCell id="tGjyJB5442aN72W2CnYs-14" style="edgeStyle=none;rounded=0;html=1;exitX=0.5;exitY=1;exitDx=0;exitDy=0;entryX=0.5;entryY=0;entryDx=0;entryDy=0;fillColor=#dae8fc;strokeColor=#6c8ebf;noEdgeStyle=1;orthogonal=1;" edge="1" parent="tGjyJB5442aN72W2CnYs-1" source="tGjyJB5442aN72W2CnYs-17" target="tGjyJB5442aN72W2CnYs-24">
                    <mxGeometry relative="1" as="geometry">
                        <Array as="points">
                            <mxPoint x="220" y="192"/>
                            <mxPoint x="230" y="268"/>
                        </Array>
                    </mxGeometry>
                </mxCell>
                <mxCell id="tGjyJB5442aN72W2CnYs-15" style="edgeStyle=none;rounded=0;html=1;exitX=0.5;exitY=1;exitDx=0;exitDy=0;entryX=0.5;entryY=0;entryDx=0;entryDy=0;fillColor=#dae8fc;strokeColor=#6c8ebf;noEdgeStyle=1;orthogonal=1;" edge="1" parent="tGjyJB5442aN72W2CnYs-1" source="tGjyJB5442aN72W2CnYs-17" target="tGjyJB5442aN72W2CnYs-26">
                    <mxGeometry relative="1" as="geometry">
                        <Array as="points">
                            <mxPoint x="230" y="194"/>
                            <mxPoint x="300" y="268"/>
                        </Array>
                    </mxGeometry>
                </mxCell>
                <mxCell id="tGjyJB5442aN72W2CnYs-16" style="edgeStyle=none;html=1;exitX=0.5;exitY=1;exitDx=0;exitDy=0;entryX=0.5;entryY=0;entryDx=0;entryDy=0;noEdgeStyle=1;orthogonal=1;" edge="1" parent="tGjyJB5442aN72W2CnYs-1" source="tGjyJB5442aN72W2CnYs-17" target="tGjyJB5442aN72W2CnYs-34">
                    <mxGeometry relative="1" as="geometry">
                        <Array as="points">
                            <mxPoint x="240" y="192"/>
                            <mxPoint x="370" y="268"/>
                        </Array>
                    </mxGeometry>
                </mxCell>
                <mxCell id="tGjyJB5442aN72W2CnYs-17" value="48" style="ellipse;whiteSpace=wrap;html=1;aspect=fixed;fillColor=#ffe6cc;strokeColor=#d79b00;" vertex="1" parent="tGjyJB5442aN72W2CnYs-1">
                    <mxGeometry x="210" y="140" width="40" height="40" as="geometry"/>
                </mxCell>
                <mxCell id="tGjyJB5442aN72W2CnYs-18" value="24" style="ellipse;whiteSpace=wrap;html=1;aspect=fixed;fillColor=#ffe6cc;strokeColor=#d79b00;" vertex="1" parent="tGjyJB5442aN72W2CnYs-1">
                    <mxGeometry y="280" width="40" height="40" as="geometry"/>
                </mxCell>
                <mxCell id="tGjyJB5442aN72W2CnYs-19" value="25" style="ellipse;whiteSpace=wrap;html=1;aspect=fixed;fillColor=#ffe6cc;strokeColor=#d79b00;" vertex="1" parent="tGjyJB5442aN72W2CnYs-1">
                    <mxGeometry x="70" y="420" width="40" height="40" as="geometry"/>
                </mxCell>
                <mxCell id="tGjyJB5442aN72W2CnYs-20" value="24" style="ellipse;whiteSpace=wrap;html=1;aspect=fixed;fillColor=#ffe6cc;strokeColor=#d79b00;" vertex="1" parent="tGjyJB5442aN72W2CnYs-1">
                    <mxGeometry x="70" y="280" width="40" height="40" as="geometry"/>
                </mxCell>
                <mxCell id="tGjyJB5442aN72W2CnYs-21" value="24" style="ellipse;whiteSpace=wrap;html=1;aspect=fixed;fillColor=#ffe6cc;strokeColor=#d79b00;" vertex="1" parent="tGjyJB5442aN72W2CnYs-1">
                    <mxGeometry x="210" y="420" width="40" height="40" as="geometry"/>
                </mxCell>
                <mxCell id="tGjyJB5442aN72W2CnYs-22" value="26" style="ellipse;whiteSpace=wrap;html=1;aspect=fixed;fillColor=#ffe6cc;strokeColor=#d79b00;" vertex="1" parent="tGjyJB5442aN72W2CnYs-1">
                    <mxGeometry x="418.90625" y="560" width="40" height="40" as="geometry"/>
                </mxCell>
                <mxCell id="tGjyJB5442aN72W2CnYs-23" value="25" style="ellipse;whiteSpace=wrap;html=1;aspect=fixed;fillColor=#ffe6cc;strokeColor=#d79b00;" vertex="1" parent="tGjyJB5442aN72W2CnYs-1">
                    <mxGeometry x="280" y="420" width="40" height="40" as="geometry"/>
                </mxCell>
                <mxCell id="tGjyJB5442aN72W2CnYs-24" value="24" style="ellipse;whiteSpace=wrap;html=1;aspect=fixed;fillColor=#ffe6cc;strokeColor=#d79b00;" vertex="1" parent="tGjyJB5442aN72W2CnYs-1">
                    <mxGeometry x="210" y="280" width="40" height="40" as="geometry"/>
                </mxCell>
                <mxCell id="tGjyJB5442aN72W2CnYs-25" value="25" style="ellipse;whiteSpace=wrap;html=1;aspect=fixed;fillColor=#ffe6cc;strokeColor=#d79b00;" vertex="1" parent="tGjyJB5442aN72W2CnYs-1">
                    <mxGeometry x="140" y="420" width="40" height="40" as="geometry"/>
                </mxCell>
                <mxCell id="tGjyJB5442aN72W2CnYs-26" value="24" style="ellipse;whiteSpace=wrap;html=1;aspect=fixed;fillColor=#ffe6cc;strokeColor=#d79b00;" vertex="1" parent="tGjyJB5442aN72W2CnYs-1">
                    <mxGeometry x="280" y="280" width="40" height="40" as="geometry"/>
                </mxCell>
                <mxCell id="tGjyJB5442aN72W2CnYs-27" style="edgeStyle=none;html=1;exitX=0.5;exitY=1;exitDx=0;exitDy=0;entryX=0.5;entryY=0;entryDx=0;entryDy=0;noEdgeStyle=1;orthogonal=1;" edge="1" parent="tGjyJB5442aN72W2CnYs-1" source="tGjyJB5442aN72W2CnYs-28" target="tGjyJB5442aN72W2CnYs-13">
                    <mxGeometry relative="1" as="geometry">
                        <Array as="points">
                            <mxPoint x="335" y="192"/>
                            <mxPoint x="440" y="268"/>
                        </Array>
                    </mxGeometry>
                </mxCell>
                <mxCell id="tGjyJB5442aN72W2CnYs-28" value="add" style="ellipse;whiteSpace=wrap;html=1;aspect=fixed;fillColor=#ffe6cc;strokeColor=#d79b00;" vertex="1" parent="tGjyJB5442aN72W2CnYs-1">
                    <mxGeometry x="315" y="140" width="40" height="40" as="geometry"/>
                </mxCell>
                <mxCell id="tGjyJB5442aN72W2CnYs-29" style="edgeStyle=none;html=1;exitX=0.5;exitY=1;exitDx=0;exitDy=0;entryX=0.5;entryY=0;entryDx=0;entryDy=0;noEdgeStyle=1;orthogonal=1;" edge="1" parent="tGjyJB5442aN72W2CnYs-1" source="tGjyJB5442aN72W2CnYs-30" target="tGjyJB5442aN72W2CnYs-19">
                    <mxGeometry relative="1" as="geometry">
                        <Array as="points">
                            <mxPoint x="160" y="332"/>
                            <mxPoint x="90" y="408"/>
                        </Array>
                    </mxGeometry>
                </mxCell>
                <mxCell id="tGjyJB5442aN72W2CnYs-30" value="add" style="ellipse;whiteSpace=wrap;html=1;aspect=fixed;fillColor=#ffe6cc;strokeColor=#d79b00;" vertex="1" parent="tGjyJB5442aN72W2CnYs-1">
                    <mxGeometry x="140" y="280" width="40" height="40" as="geometry"/>
                </mxCell>
                <mxCell id="tGjyJB5442aN72W2CnYs-31" style="edgeStyle=none;html=1;exitX=0.5;exitY=1;exitDx=0;exitDy=0;entryX=0.5;entryY=0;entryDx=0;entryDy=0;noEdgeStyle=1;orthogonal=1;" edge="1" parent="tGjyJB5442aN72W2CnYs-1" source="tGjyJB5442aN72W2CnYs-32" target="tGjyJB5442aN72W2CnYs-22">
                    <mxGeometry relative="1" as="geometry">
                        <Array as="points">
                            <mxPoint x="438.90625" y="472"/>
                            <mxPoint x="438.90625" y="548"/>
                        </Array>
                    </mxGeometry>
                </mxCell>
                <mxCell id="tGjyJB5442aN72W2CnYs-32" value="add" style="ellipse;whiteSpace=wrap;html=1;aspect=fixed;fillColor=#ffe6cc;strokeColor=#d79b00;" vertex="1" parent="tGjyJB5442aN72W2CnYs-1">
                    <mxGeometry x="418.90625" y="420" width="40" height="40" as="geometry"/>
                </mxCell>
                <mxCell id="tGjyJB5442aN72W2CnYs-33" style="edgeStyle=none;html=1;exitX=0.5;exitY=1;exitDx=0;exitDy=0;entryX=0.5;entryY=0;entryDx=0;entryDy=0;noEdgeStyle=1;orthogonal=1;" edge="1" parent="tGjyJB5442aN72W2CnYs-1" source="tGjyJB5442aN72W2CnYs-34" target="tGjyJB5442aN72W2CnYs-25">
                    <mxGeometry relative="1" as="geometry">
                        <Array as="points">
                            <mxPoint x="370" y="332"/>
                            <mxPoint x="160" y="408"/>
                        </Array>
                    </mxGeometry>
                </mxCell>
                <mxCell id="tGjyJB5442aN72W2CnYs-34" value="add" style="ellipse;whiteSpace=wrap;html=1;aspect=fixed;fillColor=#ffe6cc;strokeColor=#d79b00;" vertex="1" parent="tGjyJB5442aN72W2CnYs-1">
                    <mxGeometry x="350" y="280" width="40" height="40" as="geometry"/>
                </mxCell>
            </root>
        </mxGraphModel>
    </diagram>
</mxfile>